<?xml version="1.0" encoding="utf-8"?>
<!-- Generator: Adobe Illustrator 15.0.0, SVG Export Plug-In . SVG Version: 6.00 Build 0)  -->
<!DOCTYPE svg PUBLIC "-//W3C//DTD SVG 1.1//EN" "http://www.w3.org/Graphics/SVG/1.1/DTD/svg11.dtd">
<svg version="1.1" id="Layer_1" xmlns="http://www.w3.org/2000/svg" xmlns:xlink="http://www.w3.org/1999/xlink" x="0px" y="0px"
	 width="160px" height="192px" viewBox="0 0 160 192" enable-background="new 0 0 160 192" xml:space="preserve">
<polygon fill="#43A898" points="24,0 24,51 0,51 0,38 4,38 4,30 12,30 12,22 4,22 4,14 0,14 0,0 "/>
<path fill="#CCD4D7" d="M32.5,0v3h15V0H32.5z M32.5,5v3h15V5H32.5z M32.5,10v3h15v-3H32.5z"/>
<polygon fill="#CCD4D7" points="48,9 50,9 50,14 54,14 54,9 58,9 58,14 62,14 62,9 64,9 56,0 "/>
<path fill="#CC333F" d="M128,8c0,4,4,8,8,8s8-4,8-8s-4-8-8-8S128,4,128,8z M135,4h2v3h3v2h-3v3h-2V9h-3V7h3V4z"/>
<path fill="#749F1A" d="M70.291,11.571l3.27,3.32c1.49,1.5,4,1.47,5.45-0.04c1.45-1.5,1.24-3.851-0.2-5.351l-3.181-3.32
	L70.291,11.571z M68.9,10.141l5.36-5.39L71,1.35c-1.51-1.57-4.291-1.87-5.831-0.37c-1.56,1.52-1.56,4.19,0,5.771L68.9,10.141z"/>
<path fill="#50A4AD" d="M80,1v14h16V1h-2v3h-4V1h-4v3h-4V1H80z M83,0v3h2V0H83z M91,0v3h2V0H91z"/>
<path fill="#19987F" d="M96,4.82c0,1.45,0.471,2.86,1.189,4.16l3.36-0.06c0.261-0.51,0.511-1.03,0.72-1.55
	c0.211-0.57,0.521-1.14,0.94-1.14c0.149,0,0.47,0.11,0.521,0.34c0.459,1.38,1.039,2.81,1.56,4.19c0.31-0.98,0.36-2.12,0.569-3.04
	c0.15-0.69,0.261-1.38,0.361-2.07c0.049-0.46,0.159-1.26,0.729-1.26c0.149,0,0.409,0.06,0.569,0.4C106.99,5.6,108,7,108,8h3.38
	c0-1,0.62-2.31,0.62-3.18c0-3.33-2.49-4.82-4.359-4.82c-1.611,0-3.221,0.91-3.641,1.1c-0.42-0.19-2.029-1.1-3.641-1.1
	C98.49,0,96,1.49,96,4.82z M100.96,10.24l-2.94,0.06c2.061,2.91,5.07,5.08,5.881,5.63L104,16l0.1-0.07C105.061,15.28,109,12,111,9
	h-4c0-1-0.48-1.45-0.74-1.91c-0.42,2.18-0.779,4.36-1.25,6.54c-0.05,0.17-0.359,0.34-0.52,0.34c-0.15,0-0.461-0.17-0.52-0.34
	c-0.57-1.66-1.191-3.39-1.811-5.05C101.74,9.21,101.74,10.01,100.96,10.24z"/>
<path fill="#EB6841" d="M126.5,13.322c0-2.22-1.13-4.661-2.84-6.191c-0.82,1.131-2.16,1.87-3.66,1.87s-2.84-0.739-3.66-1.87
	c-1.71,1.53-2.84,3.971-2.84,6.191C113.5,16.893,126.5,16.893,126.5,13.322z M116.5,3.5c0,1.931,1.569,3.5,3.5,3.5s3.5-1.57,3.5-3.5
	c0-1.93-1.569-3.5-3.5-3.5S116.5,1.57,116.5,3.5z"/>
<path fill="#CC333F" d="M142.5,45.322c0-2.22-1.13-4.661-2.84-6.191c-0.82,1.131-2.16,1.87-3.66,1.87s-2.84-0.739-3.66-1.87
	c-1.71,1.53-2.84,3.971-2.84,6.191C129.5,48.893,142.5,48.893,142.5,45.322z M132.5,35.5c0,1.931,1.57,3.5,3.5,3.5s3.5-1.57,3.5-3.5
	c0-1.93-1.57-3.5-3.5-3.5S132.5,33.57,132.5,35.5z"/>
<path fill="#FFFFFF" d="M128,24c0,4,4,8,8,8s8-4,8-8s-4-8-8-8S128,20,128,24z M135,20h2v3h3v2h-3v3h-2v-3h-3v-2h3V20z"/>
<path fill="#FFFFFF" d="M70.291,27.571l3.27,3.32c1.49,1.5,4,1.47,5.45-0.04c1.45-1.5,1.24-3.851-0.2-5.351l-3.181-3.32
	L70.291,27.571z M68.9,26.141l5.36-5.39L71,17.35c-1.51-1.57-4.291-1.87-5.831-0.37c-1.56,1.52-1.56,4.19,0,5.771L68.9,26.141z"/>
<path fill="#FFFFFF" d="M80,17.5v14h16v-14h-2v3h-4v-3h-4v3h-4v-3H80z M83,16.5v3h2v-3H83z M91,16.5v3h2v-3H91z"/>
<path fill="#FFFFFF" d="M96,20.82c0,1.45,0.471,2.86,1.189,4.16l3.36-0.06c0.261-0.51,0.511-1.03,0.72-1.55
	c0.211-0.57,0.521-1.14,0.94-1.14c0.149,0,0.47,0.11,0.521,0.34c0.459,1.38,1.039,2.81,1.56,4.19c0.31-0.98,0.36-2.12,0.569-3.04
	c0.15-0.69,0.261-1.38,0.361-2.07c0.049-0.46,0.159-1.26,0.729-1.26c0.149,0,0.409,0.06,0.569,0.4C106.99,21.6,108,23,108,24h3.38
	c0-1,0.62-2.31,0.62-3.18c0-3.33-2.49-4.82-4.359-4.82c-1.611,0-3.221,0.91-3.641,1.1c-0.42-0.19-2.029-1.1-3.641-1.1
	C98.49,16,96,17.49,96,20.82z M100.96,26.24l-2.94,0.06c2.061,2.91,5.07,5.08,5.881,5.63L104,32l0.1-0.07
	C105.061,31.28,109,28,111,25h-4c0-1-0.48-1.45-0.74-1.91c-0.42,2.18-0.779,4.36-1.25,6.54c-0.05,0.17-0.359,0.34-0.52,0.34
	c-0.15,0-0.461-0.17-0.52-0.34c-0.57-1.66-1.191-3.39-1.811-5.05C101.74,25.21,101.74,26.01,100.96,26.24z"/>
<path fill="#FFFFFF" d="M126.5,29.322c0-2.22-1.13-4.661-2.84-6.191c-0.82,1.131-2.16,1.87-3.66,1.87s-2.84-0.739-3.66-1.87
	c-1.71,1.53-2.84,3.971-2.84,6.191C113.5,32.893,126.5,32.893,126.5,29.322z M116.5,19.5c0,1.931,1.569,3.5,3.5,3.5
	s3.5-1.57,3.5-3.5c0-1.93-1.569-3.5-3.5-3.5S116.5,17.57,116.5,19.5z"/>
<path fill="#212A2F" d="M122.5,82.996h-9v9h9V82.996z M121.5,80.996h-4v1h4V80.996z M115.5,80.996h-1v1h1V80.996z M118.5,93.996v-1
	h-1v1H118.5z M122.5,94.996h-9l-1-1v-13l1-1h9l1,1v13L122.5,94.996z"/>
<path fill="#212A2F" d="M117.953,100.45l0.58-0.209l-1.869-3.741l-0.65,0.3L117.953,100.45z M121.11,105.022
	c0,0-0.08,0.44-0.109,0.51c-0.07,0.231-0.09,0.141-0.18,0.122c0,0-1.929-0.542-3.06-1.67l0.28,0.27c0,0-1.41-1.801-1.52-3.091
	c0-0.07-0.039-0.08-0.039-0.08s0.029,0.01,0.119-0.03l0.599-0.25l-1.958-3.621l-0.36,0.17c0,0-2.839,0.471-2.319,2.391l0.56,1.19
	c2.849,5.052,7.877,7.803,7.877,7.803l1.31,0.69c1.789,0.561,2.528-2.151,2.528-2.151l0.23-0.72L121.11,105.022z M125.29,105.663
	l0.21-0.711l-3.898-1.48l-0.23,0.701L125.29,105.663z"/>
<path fill="#EB6841" d="M123.961,60.255c0.905-0.8-0.037-1.75-0.037-1.75l-3.34-3.681l1.769-1.601l2.984,3.257
	c0,0,2.184,1.525,1.007,3.013c0.951,0.281,1.657,1.156,1.657,2.202c0,1.271-1.026,2.297-2.288,2.297
	c-1.121,0-2.042-0.811-2.248-1.864c-1.459,1.195-2.777-0.63-2.777-0.772l1.655-1.439C123.302,60.923,123.961,60.255,123.961,60.255z
	 M113.892,59.465c-1.186-1.469,0.632-2.824,0.782-2.824l1.43,1.666c-1.006,0.959-0.33,1.647-0.33,1.647
	c0.792,0.903,1.741-0.028,1.741-0.028l3.681-3.352l1.59,1.77l-3.247,2.993c0,0-1.525,2.184-3.011,1.007
	C116.255,63.294,115.37,64,114.325,64c-1.262,0-2.287-1.026-2.287-2.288C112.038,60.594,112.837,59.664,113.892,59.465z
	 M116.038,51.738c-0.904,0.799,0.038,1.741,0.038,1.741l3.34,3.68l-1.769,1.61l-2.984-3.256c0,0-2.184-1.525-1.007-3.021
	c-0.96-0.272-1.657-1.159-1.657-2.203c0-1.262,1.026-2.288,2.288-2.288c1.12,0,2.042,0.801,2.248,1.863
	c1.459-1.195,2.739,0.623,2.739,0.772l-1.665,1.439C116.659,51.059,116.038,51.738,116.038,51.738z M126.107,52.527
	c1.187,1.459-0.631,2.739-0.781,2.739l-1.431-1.666c1.006-0.951,0.33-1.573,0.33-1.573c-0.791-0.904-1.741,0.038-1.741,0.038
	l-3.681,3.351l-1.589-1.779l3.247-2.994c0,0,1.524-2.184,3.011-0.999c0.273-0.959,1.158-1.638,2.202-1.638
	c1.262,0,2.287,0.998,2.287,2.269C127.961,51.398,127.162,52.321,126.107,52.527z"/>
<path fill="#CC333F" d="M129,49.804v4.518c0,0,0.315,3.298,1.847,4.937c1.75,2.706,4.615,4.926,5.493,4.729
	c1.219-0.272,3.347-2.263,4.91-4.24c1.422-1.811,1.75-2.713,1.75-5.426v-4.518l-2.621-0.902l-3.5-0.902h-1.751l-3.5,0.902
	L129,49.804z M141.25,51.278v3.953H136v6.148c0,0-3.065,0.173-4.814-7.059H136v-4.063C138.955,50.369,141.25,51.278,141.25,51.278z"
	/>
<path fill="#CC333F" d="M132.67,67.2c0,1.767,1.493,3.199,3.331,3.199s3.33-1.432,3.33-3.199c0-1.768-1.492-3.2-3.33-3.2
	S132.67,65.433,132.67,67.2z M130,77.462c0,3.383,12,3.383,12,0c0-2.384-1.343-5.043-3.292-6.392
	c-0.697,0.663-1.657,1.074-2.708,1.074c-1.058,0-2.01-0.413-2.708-1.074C131.335,72.426,130,75.077,130,77.462z M135.25,73.904
	h1.499v1.524h1.5v1.524h-1.5v1.524h-1.499v-1.524h-1.5v-1.524h1.5V73.904z"/>
<path fill="#0F6E5A" d="M103.992,89.305c0,0,1.209-2.77,1.209-3.661s-0.515-1.5-1.201-1.5c-0.684,0-1.201,0.626-1.201,1.5
	S103.992,89.305,103.992,89.305z M99.333,80.5C97.332,80.5,96,81.752,96,83.623v9.378c0,1.245,1.332,2.499,3.333,2.499h10
	c1.334,0,2.667-1.254,2.667-2.499v-9.378c0-1.871-1.333-3.123-2.667-3.123H99.333z M97.999,84.77c0-0.387,0.337-1.791,1.458-1.772
	h9.085c0.959,0,1.457,1.385,1.457,1.772c0,3.168-2.684,5.101-6,5.101S97.999,87.938,97.999,84.77z"/>
<path fill="#0F6E5A" d="M96,52.818c0,1.458,0.47,2.863,1.183,4.16l3.359-0.054c0.268-0.516,0.525-1.031,0.73-1.547
	c0.213-0.577,0.523-1.154,0.933-1.154c0.161,0,0.472,0.115,0.525,0.347c0.46,1.376,1.04,2.818,1.556,4.194
	c0.312-0.979,0.365-2.123,0.568-3.048c0.162-0.685,0.267-1.377,0.365-2.063c0.053-0.462,0.16-1.262,0.729-1.262
	c0.159,0,0.417,0.053,0.569,0.399c0.472,0.8,0.889,1.725,1.307,2.585h3.716c0.292-0.825,0.461-1.688,0.461-2.559
	c0-3.325-2.498-4.817-4.364-4.817c-1.609,0-3.219,0.906-3.637,1.103c-0.417-0.196-2.027-1.103-3.635-1.103
	C98.498,48,96,49.494,96,52.818z M100.96,58.24l-2.942,0.063c2.062,2.916,5.066,5.075,5.876,5.626L104,64l0.107-0.071
	c0.95-0.649,4.941-3.528,6.862-7.235h-3.671c-0.729-0.399-0.783-1.146-1.04-1.609c-0.418,2.187-0.774,4.364-1.246,6.542
	c-0.053,0.178-0.365,0.347-0.515,0.347c-0.16,0-0.472-0.169-0.525-0.347c-0.568-1.663-1.19-3.387-1.812-5.049
	C101.743,57.208,101.743,58.018,100.96,58.24z"/>
<path fill="#0F6E5A" d="M104,64c-4.417,0-8,3.583-8,8s3.583,8,8,8s8-3.583,8-8S108.417,64,104,64z M106.968,72.293
	c0-0.456-0.113-0.881-0.308-1.262l-1.567,1.588c0,0.014,0.009,0.024,0.009,0.038c0,0.729-0.597,1.316-1.324,1.316
	c-0.729,0-1.315-0.587-1.315-1.316s0.586-1.316,1.315-1.316c0.287,0,0.541,0.111,0.759,0.267l1.732-1.162
	c-0.249-0.285-0.552-0.524-0.895-0.7c-0.146-0.076-0.301-0.138-0.462-0.189c-0.067-0.021-0.134-0.044-0.204-0.061
	c-0.229-0.055-0.464-0.092-0.708-0.092c-1.636,0-2.968,1.29-2.968,2.89h-2.961c0-3.191,2.658-5.787,5.929-5.787
	c0.243,0,0.479,0.019,0.716,0.046c0.061,0.007,0.121,0.018,0.182,0.027c0.186,0.027,0.367,0.063,0.547,0.107
	c0.049,0.012,0.098,0.023,0.146,0.037c2.5,0.681,4.337,2.916,4.337,5.569H106.968z"/>
<path fill="#0F6E5A" d="M106.213,70.44l0.977-0.654c0.791-0.479,0.915-0.275,0.268,0.374l-0.854,0.865L106.213,70.44z"/>
<g>
	<path fill="#0F6E5A" d="M100.15,33.65c0,0,4.094,3.909,4.094,6.292c0,2.382-1.786,4.1-4.126,4.1c-2.332,0-4.118-1.666-4.118-4.1
		S100.15,33.65,100.15,33.65z"/>
	<path fill="#0F6E5A" d="M106.223,32.5c0,0-1.204,1.142-2.518,2.725c1.088,1.559,1.997,3.266,1.997,4.624
		c0,2.775-1.634,4.926-4,5.651c1.053,1.258,2.644,2,4.48,2c3.301,0,5.819-2.476,5.819-5.917S106.223,32.5,106.223,32.5z"/>
</g>
<path fill="#FFFFFF" d="M71.98,46.03c0.276,0,1.006,0.169,1.006,0.448v0.995c0,0.278-0.73,0.527-1.006,0.527
	c-0.267,0-0.967-0.249-0.967-0.527v-0.995C71.015,46.199,71.714,46.03,71.98,46.03z M72.001,34.06c-0.562,0-1.016-0.458-1.016-1.025
	c0-0.568,0.454-1.035,1.016-1.035c0.572,0,1.026,0.467,1.026,1.035C73.027,33.602,72.573,34.06,72.001,34.06z M78.846,44.378
	c0,0,0.553,0.607-0.434,0.607H65.588c-0.987,0-0.434-0.607-0.434-0.607s-0.345-0.348,1.43-2.04c1.637-1.562,1.421-1.631,1.421-4.378
	c0-2.746,3.117-2.826,3.117-2.826h1.756c0,0,3.039,0.08,3.039,2.826c0,2.747-0.138,2.816,1.499,4.378
	C79.192,44.03,78.846,44.378,78.846,44.378z"/>
<path fill="#7D9843" d="M74.98,62.03c0.276,0,1.006,0.169,1.006,0.448v0.995c0,0.278-0.73,0.527-1.006,0.527
	c-0.267,0-0.967-0.249-0.967-0.527v-0.995C74.014,62.199,74.714,62.03,74.98,62.03z M75,50.06c-0.562,0-1.016-0.458-1.016-1.025
	S74.438,48,75,48c0.572,0,1.026,0.467,1.026,1.035C76.026,49.602,75.572,50.06,75,50.06z M81.846,60.378
	c0,0,0.553,0.607-0.434,0.607H68.588c-0.986,0-0.434-0.607-0.434-0.607s-0.345-0.348,1.43-2.04c1.638-1.562,1.421-1.631,1.421-4.378
	c0-2.745,3.117-2.825,3.117-2.825h1.756c0,0,3.039,0.08,3.039,2.825c0,2.747-0.139,2.816,1.499,4.378
	C82.19,60.03,81.846,60.378,81.846,60.378z"/>
<path fill="#4F6C11" d="M65.951,85.448l-1.196-1.43c0,0-0.857-1.021,0.568-2.24l1.415-1.131c0,0,1.415-0.59,2.063,0.591l0.688,1.08
	C66.888,83.348,65.951,85.448,65.951,85.448z M73.035,89.499h-0.996c-0.279,0-0.499-0.19-0.499-0.47v-2c0-0.28,0.219-0.5,0.499-0.5
	c0.279,0,0.498,0.22,0.498,0.5v1.5h0.498c0.279,0,0.499,0.22,0.499,0.5S73.314,89.499,73.035,89.499z M68.521,89.018
	c0,1.971,1.584,3.562,3.538,3.562c1.962,0,3.547-1.59,3.547-3.562c0-1.959-1.584-3.55-3.547-3.55
	C70.106,85.468,68.521,87.059,68.521,89.018z M72.517,82.978l-0.01,0.55c2.95,0.12,5.052,2.561,5.052,5.551
	c0,1.581-0.438,3-1.495,4.011l0.03,0.11c0.448,0.92,0.438,1.51,0.438,1.51l-0.02,0.761h-0.747c0,0-0.159-0.731-0.627-1.651
	l-0.08-0.051c-0.896,0.631-1.803,0.761-2.979,0.761s-2.162-0.07-3.059-0.69L68.93,93.89c-0.409,0.799-0.667,1.61-0.667,1.61
	l-0.688-0.029l-0.04-0.631c0,0,0.2-0.8,0.588-1.6l0.02-0.13c-1.066-1.011-1.604-2.441-1.604-4.031c0-2.99,2.042-5.431,4.991-5.551
	l0.01-0.55c0,0,0.1-0.47-0.358-0.47h-0.608v-0.98l2.929,0.05v0.93h-0.708C72.796,82.508,72.517,82.488,72.517,82.978z
	 M79.243,84.268l-1.534,1.09c0,0-0.588-1.92-3.189-2.94l0.678-1.14c0.647-1.19,2.063-0.6,2.063-0.6l1.425,1.35
	C80.1,83.248,79.243,84.268,79.243,84.268z"/>
<polygon fill="#4F6C11" points="66.88,71.14 65,73.34 70.25,78 79,67.75 77.03,66 70.16,74.06 "/>
<path fill="#749F1A" d="M36.651,127.85l-3.84-4.594c0,0-2.723-3.273,1.813-7.172l4.545-3.605c0,0,4.526-1.91,6.594,1.9l2.185,3.449
	C39.618,121.11,36.651,127.85,36.651,127.85z M59.311,140.799h-3.193c-0.882,0-1.586-0.617-1.586-1.498v-6.407
	c0-0.88,0.706-1.596,1.586-1.596s1.597,0.716,1.597,1.596v4.8h1.597c0.881,0,1.597,0.715,1.597,1.607
	C60.907,140.184,60.192,140.799,59.311,140.799z M44.859,139.272c0,6.279,5.075,11.374,11.336,11.374
	c6.259,0,11.335-5.094,11.335-11.374s-5.075-11.374-11.335-11.374C49.936,127.899,44.859,132.993,44.859,139.272z M57.645,119.944
	l-0.029,1.733c9.434,0.411,16.155,8.219,16.155,17.78c0,5.046-1.391,9.601-4.762,12.844l0.098,0.352
	c1.431,2.948,1.381,4.829,1.381,4.829l-0.039,2.43l-2.39-0.01c0,0-0.529-2.313-2.018-5.28l-0.265-0.156
	c-2.87,2.008-5.77,2.43-9.532,2.43c-3.741,0-6.916-0.208-9.777-2.196l-0.313,0.137C44.86,157.414,44.026,160,44.026,160
	l-2.184-0.088l-0.147-2.027c0,0,0.646-2.558,1.88-5.114l0.069-0.402c-3.409-3.242-5.133-7.826-5.133-12.911
	c0-9.572,6.534-17.379,15.979-17.78l0.049-1.733c0,0,0.305-1.519-1.155-1.519h-1.96v-3.135l9.396,0.146v2.988h-2.264
	C58.556,118.426,57.645,118.377,57.645,119.944z M79.188,124.059l-4.938,3.497c0,0-1.871-6.151-10.198-9.424l2.185-3.653
	c2.067-3.811,6.594-1.901,6.594-1.901l4.545,4.312C81.913,120.787,79.188,124.059,79.188,124.059z"/>
<path fill="#4F6C11" d="M4.312,107.079l-2.32-2.781c0,0-1.65-1.979,1.09-4.33l2.75-2.181c0,0,2.74-1.149,3.989,1.15l1.32,2.08
	C6.102,102.997,4.312,107.079,4.312,107.079z M18,114.898h-1.93c-0.53,0-0.96-0.369-0.96-0.91v-3.87c0-0.531,0.43-0.96,0.96-0.96
	c0.54,0,0.97,0.43,0.97,0.96v2.9H18c0.529,0,0.959,0.439,0.959,0.969C18.96,114.529,18.53,114.898,18,114.898z M9.271,113.978
	c0,3.792,3.069,6.872,6.849,6.872c3.779,0,6.849-3.08,6.849-6.872c0-3.799-3.07-6.88-6.849-6.88
	C12.341,107.098,9.271,110.179,9.271,113.978z M17,102.297l-0.02,1.051c5.699,0.25,9.759,4.959,9.759,10.741
	c0,3.05-0.85,5.8-2.88,7.762l0.06,0.209c0.86,1.78,0.83,2.92,0.83,2.92l-0.02,1.471l-1.44-0.01c0,0-0.32-1.401-1.22-3.191
	l-0.16-0.101c-1.74,1.221-3.49,1.48-5.76,1.48c-2.259,0-4.179-0.13-5.909-1.33l-0.19,0.08c-0.779,1.561-1.279,3.121-1.279,3.121
	l-1.32-0.05l-0.09-1.231c0,0,0.39-1.539,1.14-3.09l0.04-0.24c-2.06-1.959-3.1-4.73-3.1-7.801c0-5.781,3.95-10.501,9.648-10.741
	l0.03-1.051c0,0,0.18-0.92-0.7-0.92h-1.189v-1.891l5.679,0.091v1.8h-1.36C17.55,101.376,17,101.347,17,102.297z M30.009,104.777
	l-2.98,2.12c0,0-1.139-3.719-6.169-5.69l1.32-2.21c1.25-2.3,3.989-1.15,3.989-1.15l2.74,2.6
	C31.659,102.809,30.009,104.777,30.009,104.777z"/>
<g>
	<polygon fill="#29545A" points="1.5,132 1.5,158 30.5,158 30.5,132 27.5,132 27.5,136 19.5,136 19.5,132 12.5,132 12.5,136 
		4.5,136 4.5,132 	"/>
	<path fill="#29545A" d="M6.5,130v4h4v-4H6.5z M21.5,130v4h4v-4H21.5z"/>
</g>
<g>
	<path fill="#0D5E4E" d="M19.5,75.44l2.6-1.75c1.48-0.89,1.72-0.51,0.5,0.7l-2.09,2.12L19.5,75.44z"/>
	<path fill="#0D5E4E" d="M1,80c0,8.28,6.72,15,15,15s15-6.72,15-15s-6.72-15-15-15S1,71.72,1,80z M27.121,79.54h-5.56
		c0-1.14-0.37-2.21-0.99-3.09l-2.62,2.66l-1.52-1.61l3.14-2.11c-0.97-0.79-2.21-1.26-3.57-1.26c-3.07,0-5.56,2.42-5.56,5.41H4.88
		c0-5.98,4.98-10.83,11.12-10.83S27.121,73.56,27.121,79.54z M13.121,80.24c0-1.37,1.1-2.48,2.47-2.48c1.36,0,2.47,1.11,2.47,2.48
		c0,1.36-1.11,2.47-2.47,2.47C14.221,82.71,13.121,81.6,13.121,80.24z"/>
</g>
<path fill="#FFFFFF" d="M85.99,66.6c-0.85,0-2.55,1.75-2.55,2.66c0,0.91,1.7,2.65,2.55,2.65c0.86,0,2.551-1.74,2.551-2.65
	C88.541,68.35,86.851,66.6,85.99,66.6z M86,79.5c0,0-5.5-6.33-5.5-9.27c0-3.16,2.59-5.73,5.561-5.73c2.96,0,5.439,2.57,5.439,5.73
	C91.5,73.27,86,79.5,86,79.5z"/>
<path fill="#FFFFFF" d="M90.5,83.5h-9v9h9V83.5z M89.5,81.5h-4v1h4V81.5z M83.5,81.5h-1v1h1V81.5z M86.5,94.5v-1h-1v1H86.5z
	 M90.5,95.5h-9l-1-1v-13l1-1h9l1,1v13L90.5,95.5z"/>
<path fill="#3C7B82" d="M90.987,40.963h-3.096c-0.51,0-0.918-0.409-0.918-0.908v-1.348v-2.845c0-0.509,0.468-0.918,0.978-0.918
	c0.509,0,1.049,0.409,1.049,0.918v3.124l1.988,0.02c0.509,0,0.918,0.539,0.918,1.048C91.906,40.554,91.496,40.963,90.987,40.963z
	 M88,33.927c-3.346,0-6.063,2.695-6.063,6.038c0,3.354,2.717,6.059,6.063,6.059s6.063-2.705,6.063-6.059
	C94.063,36.622,91.348,33.927,88,33.927z M88,48c-4.415,0-8-3.583-8-8.005C80,35.583,83.585,32,88,32c4.424,0,8,3.583,8,7.995
	C96,44.417,92.426,48,88,48z"/>
<polygon fill="#5D696E" points="34,20 38,24 34,28 36,30 40,26 44,30 46,28 42,24 46,20 44,18 40,22 36,18 "/>
<polygon fill="#7D9843" points="85.5,51.182 65.456,62.5 64.5,60.818 84.543,49.5 "/>
<g>
	<polygon fill="#212A2F" points="112,68 119.026,74 126,68 126,68 	"/>
	<polygon fill="#212A2F" points="126,76.375 126,69.709 122.085,73.113 	"/>
	<polygon fill="#212A2F" points="112,69.709 112,76.375 115.93,73.101 	"/>
	<polygon fill="#212A2F" points="119.026,75.771 116.888,73.927 112,78 126,78 121.131,73.942 	"/>
</g>
<polygon fill="#212A2F" points="126.318,115.496 126.318,114.43 123.219,114.43 120.395,112.5 112,117.5 128,117.5 "/>
<rect x="119.246" y="121.268" fill="#212A2F" width="2" height="4"/>
<path fill="#212A2F" d="M113.246,118.268v7h4.994l0.002-5h4.012v0.342v0.658v4h4.992v-7H113.246z M115.246,123.268h-1v-1h1V123.268z
	 M115.246,121.268h-1v-1h1V121.268z M117.246,123.268h-1v-1h1V123.268z M117.246,121.268h-1v-1h1V121.268z M124.246,123.268h-1v-1h1
	V123.268z M124.246,121.268h-1v-1h1V121.268z M126.246,123.268h-1v-1h1V123.268z M126.246,121.268h-1v-1h1V121.268z"/>
<path fill="#A5A5A5" d="M151,4v2h2V4H151z M151,7v5h2V7H151z M146,2h12v12h-12V2z M144,0v2v12v2h2h12h2v-2V2V0h-2h-12H144z"/>
<path fill="#FFFFFF" d="M151,20v2h2v-2H151z M151,23v5h2v-5H151z M146,18h12v12h-12V18z M144,16v2v12v2h2h12h2v-2V18v-2h-2h-12H144z
	"/>
<g>
	<path fill="#0F6E5A" d="M89.74,101.85c0,0,6.649,6.25,6.649,10.06s-2.89,6.55-6.69,6.55c-3.8,0-6.699-2.65-6.699-6.55
		S89.74,101.85,89.74,101.85z"/>
	<path fill="#0F6E5A" d="M99.609,100c0,0-1.949,1.829-4.09,4.359c1.77,2.5,3.24,5.23,3.24,7.41c0,4.43-2.65,7.859-6.49,9.029
		c1.71,2.021,4.3,3.201,7.279,3.201c5.361,0,9.451-3.961,9.451-9.461C109,109.029,99.609,100,99.609,100z"/>
</g>
<g>
	<circle fill="#0F6E5A" cx="96" cy="143" r="13"/>
	<path fill="#FFFFFF" d="M105.64,143.469c0-5.189-4.32-9.389-9.64-9.389c-5.32,0-9.64,4.199-9.64,9.389h4.819
		c0-2.59,2.16-4.689,4.82-4.689c2.659,0,4.819,2.1,4.819,4.689H105.64z"/>
	<path fill="#FFFFFF" d="M100.739,135.289c-1.399-0.77-3.02-1.209-4.739-1.209c-5.32,0-9.64,4.199-9.64,9.389h4.819
		c0-2.59,2.16-4.689,4.82-4.689c0.89,0,1.72,0.23,2.43,0.641C98.62,139.52,101.43,135.67,100.739,135.289z"/>
	<path fill="#FFFFFF" d="M96.38,141.699l4.91-3.3c1.279-0.771,1.49-0.44,0.43,0.601l-4.029,4.1L96.38,141.699z"/>
	<path fill="#FFFFFF" d="M93.5,144.069c0-1.18,0.96-2.14,2.14-2.14c1.19,0,2.141,0.96,2.141,2.14c0,1.181-0.95,2.14-2.141,2.14
		C94.46,146.209,93.5,145.25,93.5,144.069z"/>
</g>
<path fill="#0F6E5A" d="M99.336,139.813l1.977-1.326c1.602-0.971,1.854-0.557,0.54,0.757l-1.726,1.751L99.336,139.813z"/>
<path fill="#0F6E5A" d="M127.99,146.261c0,0,2.029-4.801,2.029-6.351c0-1.54-0.87-2.59-2.02-2.59c-1.15,0-2.021,1.09-2.021,2.59
	C125.979,141.42,127.99,146.261,127.99,146.261z M120.129,131c-3.379,0-5.629,2.17-5.629,5.42v16.25c0,2.16,2.25,4.33,5.629,4.33
	H137c2.25,0,4.5-2.17,4.5-4.33v-16.25c0-3.25-2.25-5.42-4.5-5.42H120.129z M117.879,138.399c0-0.68,0.561-3.1,2.451-3.069h15.34
	c1.609,0,2.459,2.39,2.459,3.069c0,5.49-4.539,8.851-10.129,8.851S117.879,143.892,117.879,138.399z"/>
<g>
	<g>
		<path fill="#348E8E" d="M151.5,81v6h-7v-6H151.5 M152.5,80h-9v8h9V80L152.5,80z"/>
	</g>
</g>
<g>
	<g>
		<path fill="#348E8E" d="M151.5,88v6h-7v-6H151.5 M152.5,87h-9v8h9V87L152.5,87z"/>
	</g>
</g>
<g>
	<g>
		<path fill="#348E8E" d="M151.5,95v6h-7v-6H151.5 M152.5,94h-9v8h9V94L152.5,94z"/>
	</g>
</g>
<rect x="129.647" y="81.718" fill-rule="evenodd" clip-rule="evenodd" fill="#FFFFFF" width="10.72" height="12.07"/>
<rect x="128" y="79.998" fill-rule="evenodd" clip-rule="evenodd" fill="#348E8E" width="14" height="22"/>
<rect x="129.938" y="81.998" fill-rule="evenodd" clip-rule="evenodd" fill="#FFFFFF" width="10" height="12"/>
<rect x="129.938" y="95.998" fill-rule="evenodd" clip-rule="evenodd" fill="#FFFFFF" width="5" height="1"/>
<rect x="129.938" y="97.998" fill-rule="evenodd" clip-rule="evenodd" fill="#FFFFFF" width="10" height="1"/>
<rect x="131.368" y="91.638" fill-rule="evenodd" clip-rule="evenodd" fill="#999999" width="6.86" height="2.15"/>
<path fill-rule="evenodd" clip-rule="evenodd" fill="#49A9A9" d="M131.368,91.718c0-1.9,1.53-3.44,3.43-3.44
	c1.89,0,3.43,1.54,3.43,3.44C138.228,93.628,131.368,93.628,131.368,91.718z"/>
<path fill-rule="evenodd" clip-rule="evenodd" fill="#49A9A9" d="M132.737,85.518c0-1.15,0.92-2.07,2.06-2.07
	c1.13,0,2.05,0.92,2.05,2.07c0,1.14-0.92,2.07-2.05,2.07C133.658,87.588,132.737,86.658,132.737,85.518z"/>
<rect x="144.938" y="81.998" fill-rule="evenodd" clip-rule="evenodd" fill="#49A9A9" width="5" height="1"/>
<rect x="144.938" y="88.998" fill-rule="evenodd" clip-rule="evenodd" fill="#49A9A9" width="5" height="1"/>
<rect x="144.938" y="95.998" fill-rule="evenodd" clip-rule="evenodd" fill="#49A9A9" width="5" height="1"/>
<rect x="144.938" y="83.998" fill-rule="evenodd" clip-rule="evenodd" fill="#49A9A9" width="3" height="1"/>
<rect x="144.938" y="90.998" fill-rule="evenodd" clip-rule="evenodd" fill="#49A9A9" width="3" height="1"/>
<rect x="144.938" y="97.998" fill-rule="evenodd" clip-rule="evenodd" fill="#49A9A9" width="3" height="1"/>
<rect x="130.938" y="90.998" fill-rule="evenodd" clip-rule="evenodd" fill="#49A9A9" width="8" height="3"/>
<rect x="132.938" y="88.998" fill-rule="evenodd" clip-rule="evenodd" fill="#49A9A9" width="4" height="1"/>
<rect x="32" y="32" fill-rule="evenodd" clip-rule="evenodd" fill="#348E8E" width="24" height="24"/>
<path fill-rule="evenodd" clip-rule="evenodd" fill="#49A9A9" d="M33,55V37l2-4l4,2c0,1,3-2,3-2l6,6l3-2l4,6v12H33z"/>
<polygon fill-rule="evenodd" clip-rule="evenodd" fill="#FFFFFF" points="32.938,47.015 36.938,40.015 38.938,44.015 41.938,41.015 
	46.938,49.015 49.938,45.015 54.938,52.015 54.938,55.015 32.938,55.015 "/>
<rect x="40.938" y="83.007" fill-rule="evenodd" clip-rule="evenodd" fill="#348E8E" width="2" height="2"/>
<rect x="37.938" y="83.007" fill-rule="evenodd" clip-rule="evenodd" fill="#348E8E" width="2" height="2"/>
<rect x="34.938" y="83.007" fill-rule="evenodd" clip-rule="evenodd" fill="#348E8E" width="2" height="2"/>
<rect x="41.938" y="74.007" fill-rule="evenodd" clip-rule="evenodd" fill="#348E8E" width="4" height="1"/>
<rect x="41.938" y="75.007" fill-rule="evenodd" clip-rule="evenodd" fill="#348E8E" width="4" height="1"/>
<rect x="31.938" y="74.007" fill-rule="evenodd" clip-rule="evenodd" fill="#348E8E" width="4" height="1"/>
<rect x="31.938" y="75.007" fill-rule="evenodd" clip-rule="evenodd" fill="#348E8E" width="4" height="1"/>
<rect x="41.938" y="87.007" fill-rule="evenodd" clip-rule="evenodd" fill="#348E8E" width="4" height="1"/>
<rect x="41.938" y="86.007" fill-rule="evenodd" clip-rule="evenodd" fill="#348E8E" width="4" height="1"/>
<rect x="31.938" y="87.007" fill-rule="evenodd" clip-rule="evenodd" fill="#348E8E" width="4" height="1"/>
<rect x="31.938" y="86.007" fill-rule="evenodd" clip-rule="evenodd" fill="#348E8E" width="4" height="1"/>
<rect x="44.938" y="74.007" fill-rule="evenodd" clip-rule="evenodd" fill="#348E8E" width="1" height="13"/>
<rect x="43.938" y="74.007" fill-rule="evenodd" clip-rule="evenodd" fill="#348E8E" width="1" height="13"/>
<rect x="32.938" y="74.007" fill-rule="evenodd" clip-rule="evenodd" fill="#348E8E" width="1" height="13"/>
<rect x="31.938" y="74.007" fill-rule="evenodd" clip-rule="evenodd" fill="#348E8E" width="1" height="13"/>
<path fill-rule="evenodd" clip-rule="evenodd" fill="#348E8E" d="M45.938,69.007c0-1.66,1.34-3,3-3s3,1.34,3,3s-1.34,3-3,3
	S45.938,70.667,45.938,69.007z"/>
<rect x="47.938" y="64.007" fill-rule="evenodd" clip-rule="evenodd" fill="#348E8E" width="2" height="10"/>
<rect x="43.938" y="68.007" fill-rule="evenodd" clip-rule="evenodd" fill="#348E8E" width="10" height="2"/>
<polygon fill-rule="evenodd" clip-rule="evenodd" fill="#348E8E" points="45.938,67.007 45.938,68.007 47.938,68.007 47.938,66.007 
	46.938,66.007 46.938,65.007 44.938,65.007 44.938,67.007 "/>
<polygon fill-rule="evenodd" clip-rule="evenodd" fill="#348E8E" points="50.938,72.007 50.938,73.007 52.938,73.007 52.938,71.007 
	51.938,71.007 51.938,70.007 49.938,70.007 49.938,72.007 "/>
<polygon fill-rule="evenodd" clip-rule="evenodd" fill="#348E8E" points="46.938,72.007 46.938,73.007 44.938,73.007 44.938,71.007 
	45.938,71.007 45.938,70.007 47.938,70.007 47.938,72.007 "/>
<polygon fill-rule="evenodd" clip-rule="evenodd" fill="#348E8E" points="51.938,67.007 51.938,68.007 49.938,68.007 49.938,66.007 
	50.938,66.007 50.938,65.007 52.938,65.007 52.938,67.007 "/>
<circle fill-rule="evenodd" clip-rule="evenodd" fill="#FFFFFF" cx="48.938" cy="69.007" r="1"/>
<polygon opacity="0.3" fill-rule="evenodd" clip-rule="evenodd" fill="#FFFFFF" points="32.938,55.015 32.938,43.015 35.938,36.015 
	39.938,40.015 41.938,38.015 48.938,44.015 52.938,43.015 54.938,46.015 54.938,55.015 "/>
<rect y="160.5" fill-rule="evenodd" clip-rule="evenodd" fill="#348E8E" width="24" height="23"/>
<rect x="1.938" y="162" fill-rule="evenodd" clip-rule="evenodd" fill="#FFFFFF" width="8" height="19"/>
<rect x="10.938" y="162" fill-rule="evenodd" clip-rule="evenodd" fill="#FFFFFF" width="3" height="3"/>
<rect x="10.938" y="170" fill-rule="evenodd" clip-rule="evenodd" fill="#FFFFFF" width="3" height="3"/>
<rect x="10.938" y="166" fill-rule="evenodd" clip-rule="evenodd" fill="#FFFFFF" width="3" height="3"/>
<rect x="10.938" y="174" fill-rule="evenodd" clip-rule="evenodd" fill="#FFFFFF" width="3" height="3"/>
<rect x="10.938" y="178" fill-rule="evenodd" clip-rule="evenodd" fill="#FFFFFF" width="3" height="3"/>
<rect x="14.938" y="162" fill-rule="evenodd" clip-rule="evenodd" fill="#FFFFFF" width="3" height="3"/>
<rect x="14.938" y="170" fill-rule="evenodd" clip-rule="evenodd" fill="#FFFFFF" width="3" height="3"/>
<rect x="14.938" y="166" fill-rule="evenodd" clip-rule="evenodd" fill="#FFFFFF" width="3" height="3"/>
<rect x="14.938" y="174" fill-rule="evenodd" clip-rule="evenodd" fill="#FFFFFF" width="3" height="3"/>
<rect x="14.938" y="178" fill-rule="evenodd" clip-rule="evenodd" fill="#FFFFFF" width="3" height="3"/>
<rect x="18.938" y="162" fill-rule="evenodd" clip-rule="evenodd" fill="#FFFFFF" width="3" height="3"/>
<rect x="18.938" y="170" fill-rule="evenodd" clip-rule="evenodd" fill="#FFFFFF" width="3" height="3"/>
<rect x="18.938" y="166" fill-rule="evenodd" clip-rule="evenodd" fill="#FFFFFF" width="3" height="3"/>
<rect x="18.938" y="174" fill-rule="evenodd" clip-rule="evenodd" fill="#FFFFFF" width="3" height="3"/>
<rect x="18.938" y="178" fill-rule="evenodd" clip-rule="evenodd" fill="#FFFFFF" width="3" height="3"/>
<rect x="2.938" y="163" fill-rule="evenodd" clip-rule="evenodd" fill="#49A9A9" width="6" height="1"/>
<rect x="2.938" y="165" fill-rule="evenodd" clip-rule="evenodd" fill="#49A9A9" width="6" height="1"/>
<rect x="2.938" y="177" fill-rule="evenodd" clip-rule="evenodd" fill="#49A9A9" width="6" height="1"/>
<rect x="4.938" y="167" fill-rule="evenodd" clip-rule="evenodd" fill="#49A9A9" width="4" height="1"/>
<rect x="4.938" y="169" fill-rule="evenodd" clip-rule="evenodd" fill="#49A9A9" width="4" height="1"/>
<rect x="4.938" y="171" fill-rule="evenodd" clip-rule="evenodd" fill="#49A9A9" width="4" height="1"/>
<rect x="4.938" y="173" fill-rule="evenodd" clip-rule="evenodd" fill="#49A9A9" width="4" height="1"/>
<rect x="2.938" y="175" fill-rule="evenodd" clip-rule="evenodd" fill="#49A9A9" width="6" height="1"/>
<rect x="2.938" y="179" fill-rule="evenodd" clip-rule="evenodd" fill="#49A9A9" width="6" height="1"/>
<g>
	<polygon fill-rule="evenodd" clip-rule="evenodd" fill="#EB6841" points="123.05,32 121.63,33.42 122.34,34.129 121.63,34.828 
		122.34,35.537 123.05,34.828 125.17,36.946 124.46,37.655 125.17,38.365 125.87,37.655 126.58,38.365 128,36.946 	"/>
	<path fill-rule="evenodd" clip-rule="evenodd" fill="#EB6841" d="M123.75,41.192l1.42,1.409l1.41-1.409l-7.78-7.772l-1.41,1.408
		l1.41,1.419l-5.39,5.398l0.71,3.537L112,47.3l0.7,0.7l2.12-2.118l3.54,0.709 M122.34,39.773l-1.007,1.048l-1.41-1.409l-0.71,0.7
		l1.41,1.418l-0.7,0.7l-1.42-1.409l-0.7,0.709l1.41,1.409l-0.647,0.658l-1.423-1.422l-0.697,0.696l1.429,1.428l-0.918,0.897
		l-1.395-0.226l-0.594-0.593l-0.359-2.498l4.9-4.935L122.34,39.773z"/>
</g>
<rect x="32" y="160" fill-rule="evenodd" clip-rule="evenodd" fill="#348E8E" width="24" height="24"/>
<rect x="46.928" y="171" fill-rule="evenodd" clip-rule="evenodd" fill="#FFFFFF" width="1" height="4"/>
<rect x="38.928" y="171" fill-rule="evenodd" clip-rule="evenodd" fill="#FFFFFF" width="1" height="4"/>
<rect x="34.928" y="170" fill-rule="evenodd" clip-rule="evenodd" fill="#FFFFFF" width="1" height="6"/>
<rect x="42.928" y="170" fill-rule="evenodd" clip-rule="evenodd" fill="#FFFFFF" width="1" height="6"/>
<rect x="50.928" y="170" fill-rule="evenodd" clip-rule="evenodd" fill="#FFFFFF" width="1" height="6"/>
<polygon fill-rule="evenodd" clip-rule="evenodd" fill="#FFFFFF" points="43.428,177 41.928,179.5 41.928,181 44.928,181 
	44.928,179.5 "/>
<polygon fill-rule="evenodd" clip-rule="evenodd" fill="#FFFFFF" points="52.928,167 52.928,168 49.928,168 49.928,165 51.928,165 
	51.928,164 49.928,164 49.928,163 52.928,163 52.928,166 50.928,166 50.928,167 "/>
<rect x="35.928" y="172" fill-rule="evenodd" clip-rule="evenodd" fill="#FFFFFF" width="16" height="2"/>
<rect x="35.928" y="172" fill-rule="evenodd" clip-rule="evenodd" fill="#FFFFFF" width="10" height="2"/>
<path fill-rule="evenodd" clip-rule="evenodd" fill="#FFFFFF" d="M33.928,163v1v3v1h1h1h1v-1v-3v-1h-1h-1H33.928z M34.928,164h1v3
	h-1V164z"/>
<polygon fill-rule="evenodd" clip-rule="evenodd" fill="#FFFFFF" points="41.928,163 41.928,164 42.928,164 42.928,168 43.928,168 
	43.928,164 43.928,163 42.928,163 "/>
<polygon fill-rule="evenodd" clip-rule="evenodd" fill="#FFFFFF" points="69.644,95.985 76.356,103.308 69.644,110.63 
	67.813,108.629 72.695,103.308 67.813,97.987 "/>
</svg>
